<?xml version="1.0" encoding="UTF-8"?>
<svg width="300px" height="300px" viewBox="0 0 674 674" version="1.1" xmlns="http://www.w3.org/2000/svg" xmlns:xlink="http://www.w3.org/1999/xlink">
    <!-- Generator: Sketch 56 (81588) - https://sketch.com -->
    <title>quiksilver-square</title>
    <desc>Created with Sketch.</desc>
    <g id="BLACK" stroke="none" stroke-width="1" fill="none" fill-rule="evenodd">
        <g id="quiksilver-black" transform="translate(48.000000, 183.000000)" fill="#000000" fill-rule="nonzero">
            <path d="M579,307 L32.2542904,307 C13.4852901,307 0.236584037,291.187114 0,276.085808 L0,153.219683 C23.500681,153.219683 44.6355217,141.913469 52.2850722,136.378959 C101.021384,101.432481 141.556115,33.3580058 193.446881,11.2199652 C208.667121,4.73668193 238.240125,-5.77888734 275.46268,3.94603762 L320.019341,48.459312 C320.019341,48.459312 296.755244,37.4693562 262.213974,37.4693562 C223.493054,37.4693562 148.732498,69.4904506 148.732498,153.140618 C148.732498,220.503513 195.024108,267.863107 271.046445,267.863107 L539.884773,267.863107 L579,307 Z" id="Shape"></path>
            <path d="M267.525444,155.078418 C264.682429,157.847328 266.182909,161.090909 269.894623,161.011797 L300.772924,161.011797 L322.490398,142.578765 C327.070811,138.069396 331.414306,138.939625 331.414306,143.765441 L331.414306,180.473282 C331.335334,186.32755 336.468555,186.32755 339.548488,182.371964 L362.134662,161.011797 L391.7494,161.011797 C394.118579,160.932686 395.777004,157.92644 392.618099,154.841083 L339.153625,102.152672 C335.362938,98.2761971 327.070811,98.2761971 323.43807,102.152672 C322.174508,103.418459 267.525444,155.078418 267.525444,155.078418 L267.525444,155.078418 Z M517,244 L266.024964,244 C237.594815,244 199.530005,230.392783 188,203.890354 C188,203.890354 300.851896,88.5454545 306.301008,83.0867453 C319.805329,69.6377516 343.891983,69.6377516 355.579933,83.0867453 L517,244 Z" id="Shape"></path>
        </g>
    </g>
</svg>